<?xml version="1.0"?>
<svg xmlns="http://www.w3.org/2000/svg" height="512px" viewBox="0 0 512 512" width="512px"><path d="m460.800781 128c0 4.710938-3.820312 8.535156-8.535156 8.535156-4.710937 0-8.53125-3.824218-8.53125-8.535156s3.820313-8.535156 8.53125-8.535156c4.714844 0 8.535156 3.824218 8.535156 8.535156zm0 0" fill="#EAB60F"/><path d="m494.933594 85.332031h-85.332032c-9.425781 0-17.066406 7.640625-17.066406 17.066407v85.335937c0 9.425781 7.640625 17.066406 17.066406 17.066406h17.066407v65.238281l-24.542969 30.136719c-18-31.742187-51.34375-51.703125-87.824219-52.582031l-7.101562-38.09375h.1875c9.988281-9.90625 17.121093-22.320312 20.644531-35.941406l4.539062-18.15625.042969-.15625 5.015625-20.078125c10.757813 3.25 22.429688.160156 30.171875-7.988281 7.742188-8.144532 10.234375-19.957032 6.441407-30.539063-3.792969-10.578125-13.222657-18.117187-24.375-19.492187v-43.015626c0-18.851562-15.28125-34.132812-34.132813-34.132812h-119.46875c-18.851563 0-34.132813 15.28125-34.132813 34.132812v43.109376c-14.59375 2.167968-25.421874 14.667968-25.480468 29.425781.039062 1.429687.179687 2.855469.425781 4.265625h-128.542969c-4.714844 0-8.535156 3.820312-8.535156 8.53125v85.335937c0 4.710938 3.820312 8.53125 8.535156 8.53125h9.855469c4.261719 11.078125 12.796875 19.976563 23.6875 24.695313l27.304687 146.664062c4.359376 19.472656 21.597657 33.347656 41.550782 33.441406h34.132812v68.34375c.015625 14.082032 11.417969 25.496094 25.496094 25.523438h170.839844c14.09375-.007812 25.515625-11.429688 25.53125-25.523438v-59.628906h30.644531c15.824219.019532 30.359375-8.738281 37.734375-22.742187l67.179688-127.054688c.070312-.136719.09375-.28125.15625-.417969.058593-.136718.167968-.441406.253906-.671874.3125-.839844.488281-1.71875.523437-2.613282.015625-.09375.03125-.1875.039063-.28125v-42.667968c0-9.425782-7.640625-17.066407-17.066406-17.066407h-8.53125v-8.53125h17.066406c9.425781 0 17.066406-7.640625 17.066406-17.066406v-85.335937c0-9.425782-7.640625-17.066407-17.066406-17.066407zm-145.066406 247.46875h-17.066407v-65.589843c5.890625 1.464843 11.609375 3.542968 17.066407 6.195312zm-153.601563 0v-68.078125c1.433594-.070312 2.851563-.1875 4.269531-.1875h110.929688c1.445312 0 2.851562.117188 4.269531.1875v68.078125zm-64.179687-59.734375-4.597657-34.472656c11.371094-4.675781 20.328125-13.804688 24.789063-25.261719h51.71875l-6.339844 34.261719c-24.15625.609375-47.347656 9.617188-65.585938 25.472656zm-115.019532-76.800781v-25.597656h166.128906l.714844 2.855469c2.148438 8.148437 5.726563 15.851562 10.574219 22.742187zm299.792969-48.324219c-24.679687 13.066406-97.144531 13.066406-121.769531 0l-13.507813-54.074218h148.804688zm-154.726563 125.476563c5.457032-2.65625 11.179688-4.734375 17.066407-6.207031v65.589843h-17.066407zm133.273438-76.058594c-3.992188 3.90625-5.851562 9.507813-4.984375 15.027344v.152343l6.539063 34.925782h-81.921876l6.613282-35.703125c.519531-3.386719-.007813-6.851563-1.507813-9.929688-.109375-.277343-.234375-.542969-.378906-.804687-.808594-1.570313-1.847656-3.007813-3.085937-4.265625-7.75-7.488281-13.347657-16.917969-16.214844-27.308594l-.324219-1.285156c18.214844 4.84375 37.011719 7.152343 55.859375 6.859375 18.835938.269531 37.617188-2.058594 55.816406-6.921875l-.316406 1.28125c-2.796875 10.585937-8.359375 20.238281-16.109375 27.972656zm63.761719-90.691406c.035156 4.226562-2.03125 8.191406-5.515625 10.585937-3.480469 2.394532-7.925782 2.90625-11.859375 1.359375l6.144531-24.558593c6.378906.789062 11.183594 6.183593 11.230469 12.613281zm-179.96875-72.535157c0-9.425781 7.640625-17.066406 17.066406-17.066406h119.46875c9.425781 0 17.066406 7.640625 17.066406 17.066406v42.667969h-153.601562zm-15.128907 59.980469 6.179688 24.746094c-4.175781 1.417969-8.785156.453125-12.042969-2.515625-.609375-1.421875-1.597656-2.652344-2.859375-3.550781-1.042968-1.859375-1.597656-3.957031-1.609375-6.09375-.015625-6.121094 4.308594-11.398438 10.316407-12.585938zm-147.003906 33.886719h128.613282c7.496093 7.519531 18.5 10.34375 28.691406 7.363281l4.554687 18.238281h-161.859375zm20.371094 85.332031h95.792969c-7.03125 9.148438-24.746094 17.066407-47.898438 17.066407-23.148437 0-40.863281-7.917969-47.894531-17.066407zm73.496094 187.734375c-11.859375-.027344-22.136719-8.210937-24.824219-19.761718l-25.429687-136.652344c16.574218 3.832031 33.8125 3.75 50.347656-.242188l5.972656 44.902344c-9.964844 13.332031-16.59375 28.855469-19.328125 45.269531-.5 3.007813.640625 6.054688 2.992187 7.992188 2.355469 1.941406 5.566407 2.472656 8.421876 1.40625 2.851562-1.070313 4.921874-3.582031 5.421874-6.589844 2.460938-14.8125 8.703126-28.738281 18.125-40.429687l.164063-.214844c3.667969-4.507813 7.777344-8.640625 12.269531-12.332032v116.652344zm238.933594 85.410156c0 4.667969-3.78125 8.453126-8.449219 8.457032h-170.855469c-4.664062-.003906-8.445312-3.789063-8.445312-8.457032v-76.800781l.015624-.074219v-59.734374h187.734376zm70.355468-90.34375c-4.429687 8.402344-13.148437 13.65625-22.644531 13.65625h-30.644531v-125.390624c16.261718 13.382812 27.109375 32.214843 30.53125 52.992187.683594 4.113281 4.242187 7.132813 8.414062 7.132813.472656 0 .941406-.039063 1.410156-.117188 2.230469-.371094 4.226563-1.617188 5.539063-3.457031 1.316406-1.84375 1.847656-4.132813 1.472656-6.367188-.980469-5.765625-2.429687-11.441406-4.34375-16.972656l29.304688-36.007813h41.507812zm66.175782-165.734374v34.136718h-42.664063v-85.335937c0-4.710938 3.820313-8.53125 8.53125-8.53125 4.714844 0 8.535156 3.820312 8.535156 8.53125v34.132812c0 9.425781 7.640625 17.066407 17.066407 17.066407zm8.535156-42.664063h-17.066406v-8.535156c0-14.136719-11.460938-25.597657-25.601563-25.597657-14.136719 0-25.597656 11.460938-25.597656 25.597657v8.535156h-17.066407v-85.335937h85.332032zm0 0" fill="#EAB60F"/><path d="m99.898438 45.167969c-3.332032-3.332031-8.734376-3.332031-12.066407 0-8.039062 8.050781-8.039062 21.097656 0 29.148437 1.378907 1.375 1.378907 3.609375 0 4.984375-2.15625 2.15625-3 5.296875-2.214843 8.246094.789062 2.945313 3.089843 5.25 6.035156 6.039063 2.945312.792968 6.089844-.046876 8.246094-2.203126 8.042968-8.050781 8.042968-21.097656 0-29.148437-1.375-1.378906-1.375-3.609375 0-4.984375 1.605468-1.601562 2.507812-3.773438 2.507812-6.042969 0-2.265625-.902344-4.4375-2.507812-6.039062zm0 0" fill="#EAB60F"/><path d="m48.699219 45.167969c-3.332031-3.332031-8.734375-3.332031-12.066407 0-8.042968 8.050781-8.042968 21.097656 0 29.148437 1.375 1.375 1.375 3.609375 0 4.984375-3.335937 3.332031-3.339843 8.738281-.007812 12.074219s8.738281 3.339844 12.074219.007812c8.042969-8.050781 8.042969-21.097656 0-29.148437-1.375-1.378906-1.375-3.609375 0-4.984375 1.605469-1.601562 2.507812-3.773438 2.507812-6.042969 0-2.265625-.902343-4.4375-2.507812-6.039062zm0 0" fill="#EAB60F"/></svg>
