<?xml version="1.0"?>
<svg xmlns="http://www.w3.org/2000/svg" height="512px" viewBox="0 -94 512.12884 512" width="512px"><path d="m204.867188 162.195312c-14.140626 0-25.601563 11.464844-25.601563 25.601563s11.460937 25.601563 25.601563 25.601563c14.136718 0 25.597656-11.464844 25.597656-25.601563-.015625-14.132813-11.464844-25.585937-25.597656-25.601563zm0 34.136719c-4.714844 0-8.535157-3.824219-8.535157-8.535156s3.820313-8.535156 8.535157-8.535156c4.710937 0 8.53125 3.824219 8.53125 8.535156-.003907 4.710937-3.820313 8.527344-8.53125 8.535156zm0 0" fill="#EAB60F"/><path d="m307.265625 162.195312c-14.136719 0-25.597656 11.464844-25.597656 25.601563s11.460937 25.601563 25.597656 25.601563c14.140625 0 25.601563-11.464844 25.601563-25.601563-.015626-14.132813-11.46875-25.585937-25.601563-25.601563zm0 34.136719c-4.710937 0-8.53125-3.824219-8.53125-8.535156s3.820313-8.535156 8.53125-8.535156c4.714844 0 8.535156 3.824219 8.535156 8.535156-.003906 4.710937-3.824219 8.527344-8.535156 8.535156zm0 0" fill="#EAB60F"/><path d="m477.808594 91.457031c-.90625-34.175781-22.167969-64.492187-53.992188-76.976562-31.824218-12.488281-68.03125-4.722657-91.933594 19.71875h-50.214843v-17.066407c-.011719-9.421874-7.648438-17.0585932-17.066407-17.070312h-17.066406c-9.421875.0117188-17.058594 7.648438-17.070312 17.070312v17.066407h-50.21875c-23.902344-24.441407-60.105469-32.207031-91.925782-19.722657-31.824218 12.484376-53.085937 42.800782-53.988281 76.972657-8.746093 14.246093-15.578125 29.582031-20.320312 45.617187-18.390625 59.480469-18.714844 129.964844-.75 163.9375 4.640625 10.210938 13.230469 18.089844 23.800781 21.835938 3.152344.960937 6.433594 1.445312 9.734375 1.441406 18.371094 0 39.78125-14.359375 61.414063-41.492188 17-21.882812 31.046874-45.90625 41.773437-71.457031 8.820313 20.636719 28.480469 34.574219 50.871094 36.066407 22.394531 1.492187 43.730469-9.710938 55.210937-28.996094 11.480469 19.285156 32.816406 30.488281 55.207032 28.996094 22.394531-1.492188 42.054687-15.429688 50.875-36.0625 10.730468 25.546874 24.773437 49.570312 41.777343 71.453124 21.632813 27.136719 43.039063 41.492188 61.40625 41.492188 3.300781.007812 6.582031-.476562 9.734375-1.441406 10.570313-3.746094 19.160156-11.628906 23.800782-21.835938 17.964843-33.960937 17.640624-104.445312-.75-163.941406-4.738282-16.027344-11.566407-31.363281-20.308594-45.605469zm-85.207032-65.792969c28.699219-.046874 54.359376 17.863282 64.21875 44.816407 9.859376 26.949219 1.808594 57.191406-20.148437 75.675781-21.953125 18.480469-53.125 21.257812-78 6.949219-1.425781-.769531-2.804687-1.617188-4.136719-2.535157-.511718-.328124-.972656-.667968-1.4375-1.015624-3.5-4.183594-7.550781-7.871094-12.042968-10.964844-17.476563-20.191406-21.574219-48.71875-10.484376-73.011719 11.085938-24.292969 35.324219-39.890625 62.03125-39.914063zm-136.535156 131.527344c-12.007812-20.460937-35.101562-31.734375-58.617187-28.617187 11.179687-24.925781 9.652343-53.714844-4.109375-77.3125h28.59375v25.601562c.015625 14.128907 11.46875 25.582031 25.601562 25.597657h17.066406c14.128907-.015626 25.582032-11.46875 25.597657-25.597657v-25.601562h28.597656c-13.761719 23.597656-15.292969 52.386719-4.113281 77.3125-23.515625-3.117188-46.609375 8.15625-58.617188 28.617187zm17.066406-105.929687v25.601562c-.003906 4.710938-3.820312 8.53125-8.53125 8.535157h-17.066406c-4.714844-.003907-8.53125-3.824219-8.535156-8.535157v-25.601562zm-25.597656-34.132813h17.066406v17.066406h-17.066406zm-128 8.535156c26.726563-.027343 51.007813 15.5625 62.105469 39.878907 11.097656 24.316406 6.96875 52.871093-10.566406 73.046875-4.511719 3.105468-8.578125 6.8125-12.089844 11.019531-.472656.347656-.980469.699219-1.710937 1.179687-1.273438.863282-2.589844 1.660157-3.941407 2.390626-24.886719 14.199218-55.992187 11.34375-77.875-7.148438-21.882812-18.492188-29.886719-48.683594-20.035156-75.589844 9.851563-26.902344 35.460937-44.789062 64.113281-44.777344zm-24.667968 246.484376c-20.292969 25.449218-40.003907 38.289062-52.785157 34.375-6.183593-2.5-11.125-7.351563-13.730469-13.492188-15.820312-29.910156-14.953124-96.210938 1.96875-150.933594 2.289063-7.429687 4.992188-14.722656 8.097657-21.847656 6.804687 21.449219 21.871093 39.300781 41.871093 49.613281 20 10.308594 43.285157 12.230469 64.703126 5.332031-.210938.714844-.367188 1.339844-.585938 2.070313-10.761719 34.3125-27.535156 66.441406-49.539062 94.882813zm110-41.683594c-23.566407 0-42.667969-19.105469-42.667969-42.667969s19.101562-42.667969 42.667969-42.667969c23.5625 0 42.667968 19.105469 42.667968 42.667969-.03125 23.550781-19.117187 42.640625-42.667968 42.667969zm102.398437 0c-23.5625 0-42.664063-19.105469-42.664063-42.667969s19.101563-42.667969 42.664063-42.667969c23.566406 0 42.667969 19.105469 42.667969 42.667969-.027344 23.550781-19.113282 42.640625-42.667969 42.667969zm176.515625 62.566406c-2.605469 6.140625-7.546875 10.996094-13.738281 13.492188-12.75 4.015624-32.472657-8.917969-52.773438-34.375-22-28.433594-38.765625-60.550782-49.527343-94.851563-.222657-.746094-.382813-1.382813-.59375-2.109375 21.417968 6.902344 44.707031 4.984375 64.707031-5.332031 20.003906-10.316407 35.066406-28.179688 41.859375-49.636719 3.109375 7.136719 5.816406 14.4375 8.105468 21.878906 16.914063 54.734375 17.769532 121.023438 1.960938 150.933594zm0 0" fill="#EAB60F"/><path d="m119.535156 76.863281c4.710938 0 8.53125-3.820312 8.53125-8.53125v-17.070312c0-4.710938-3.820312-8.53125-8.53125-8.53125-4.714844 0-8.535156 3.820312-8.535156 8.53125v17.070312c0 4.710938 3.820312 8.53125 8.535156 8.53125zm0 0" fill="#EAB60F"/><path d="m93.933594 102.464844c4.710937 0 8.53125-3.820313 8.53125-8.535156 0-4.710938-3.820313-8.53125-8.53125-8.53125h-17.066406c-4.714844 0-8.535157 3.820312-8.535157 8.53125 0 4.714843 3.820313 8.535156 8.535157 8.535156zm0 0" fill="#EAB60F"/><path d="m145.132812 102.464844h17.066407c4.714843 0 8.535156-3.820313 8.535156-8.535156 0-4.710938-3.820313-8.53125-8.535156-8.53125h-17.066407c-4.710937 0-8.53125 3.820312-8.53125 8.53125 0 4.714843 3.820313 8.535156 8.53125 8.535156zm0 0" fill="#EAB60F"/><path d="m119.535156 145.128906c4.710938 0 8.53125-3.820312 8.53125-8.53125v-17.066406c0-4.714844-3.820312-8.535156-8.53125-8.535156-4.714844 0-8.535156 3.820312-8.535156 8.535156v17.066406c0 4.710938 3.820312 8.53125 8.535156 8.53125zm0 0" fill="#EAB60F"/><path d="m392.601562 76.863281c4.710938 0 8.53125-3.820312 8.53125-8.53125v-17.070312c0-4.710938-3.820312-8.53125-8.53125-8.53125-4.714843 0-8.535156 3.820312-8.535156 8.53125v17.070312c0 4.710938 3.820313 8.53125 8.535156 8.53125zm0 0" fill="#EAB60F"/><path d="m349.933594 102.464844h17.066406c4.710938 0 8.535156-3.820313 8.535156-8.535156 0-4.710938-3.824218-8.53125-8.535156-8.53125h-17.066406c-4.714844 0-8.535156 3.820312-8.535156 8.53125 0 4.714843 3.820312 8.535156 8.535156 8.535156zm0 0" fill="#EAB60F"/><path d="m418.199219 102.464844h17.066406c4.714844 0 8.535156-3.820313 8.535156-8.535156 0-4.710938-3.820312-8.53125-8.535156-8.53125h-17.066406c-4.710938 0-8.53125 3.820312-8.53125 8.53125 0 4.714843 3.820312 8.535156 8.53125 8.535156zm0 0" fill="#EAB60F"/><path d="m392.601562 145.128906c4.710938 0 8.53125-3.820312 8.53125-8.53125v-17.066406c0-4.714844-3.820312-8.535156-8.53125-8.535156-4.714843 0-8.535156 3.820312-8.535156 8.535156v17.066406c0 4.710938 3.820313 8.53125 8.535156 8.53125zm0 0" fill="#EAB60F"/></svg>
